<?xml version="1.0" standalone="no"?>
<!DOCTYPE svg PUBLIC "-//W3C//DTD SVG 20010904//EN"
 "http://www.w3.org/TR/2001/REC-SVG-20010904/DTD/svg10.dtd">
<svg version="1.0" xmlns="http://www.w3.org/2000/svg"
 width="1280.000000pt" height="1280.000000pt" viewBox="0 0 1280.000000 1280.000000"
 preserveAspectRatio="xMidYMid meet">

<g transform="translate(0.000000,1280.000000) scale(0.100000,-0.100000)" stroke="none">
<path d="M5945 11195 c-537 -51 -1041 -175 -1530 -375 -180 -74 -542 -259
-711 -363 -1195 -736 -2033 -1902 -2342 -3257 -89 -390 -124 -711 -125 -1140
-1 -318 6 -425 44 -705 177 -1315 875 -2536 1916 -3354 l25 -20 -183 -268
c-100 -147 -367 -538 -592 -868 -225 -330 -414 -603 -421 -607 -8 -6 -3 -22
15 -55 29 -53 40 -60 62 -39 8 8 288 415 621 904 l607 889 1142 7 c2975 18
4999 26 5009 20 5 -4 287 -423 625 -933 338 -509 622 -932 631 -939 40 -31
102 10 87 58 -4 11 -281 432 -616 936 -335 503 -609 916 -609 918 0 2 55 50
123 107 1065 901 1713 2179 1818 3589 13 177 7 697 -11 855 -71 645 -235 1219
-510 1780 -246 504 -573 958 -980 1365 -831 831 -1873 1335 -3065 1481 -225
27 -803 35 -1030 14z m925 -120 c1652 -166 3085 -1092 3904 -2523 537 -938
758 -2038 625 -3114 -94 -769 -366 -1507 -793 -2158 -262 -398 -615 -795 -966
-1088 l-135 -112 -655 0 c-360 0 -1368 -5 -2240 -10 -872 -5 -1970 -10 -2441
-11 l-857 -3 -98 79 c-883 717 -1512 1738 -1748 2837 -89 413 -110 624 -110
1083 0 376 6 467 50 759 78 528 266 1099 514 1573 657 1249 1780 2154 3145
2533 322 89 713 151 1110 174 124 8 546 -4 695 -19z"/>
<path d="M6160 10124 c-543 -45 -1002 -172 -1450 -400 -760 -386 -1368 -1027
-1715 -1807 -213 -480 -318 -977 -318 -1512 1 -344 36 -629 118 -940 477
-1817 2223 -2994 4085 -2754 1221 157 2293 918 2846 2019 607 1210 517 2634
-238 3759 -298 443 -715 838 -1174 1112 -459 272 -930 433 -1481 505 -111 14
-569 27 -673 18z m571 -139 c1677 -160 3003 -1434 3233 -3105 71 -513 21
-1073 -141 -1575 -407 -1263 -1479 -2203 -2783 -2439 -236 -43 -331 -50 -640
-50 -378 0 -581 24 -905 109 -1371 358 -2406 1486 -2640 2880 -37 220 -49 363
-49 600 0 320 34 592 110 888 379 1476 1621 2539 3144 2692 175 18 488 18 671
0z"/>
<path d="M4975 9236 c-133 -42 -299 -161 -481 -341 -496 -494 -715 -1018 -468
-1121 133 -56 386 84 666 368 129 131 214 235 319 391 190 282 264 520 198
636 -40 72 -134 99 -234 67z m125 -142 c19 -49 -9 -151 -80 -294 -195 -390
-674 -868 -907 -906 -36 -5 -43 -3 -53 16 -37 69 49 286 208 519 94 139 172
232 306 366 161 160 285 252 405 301 76 32 109 31 121 -2z"/>
<path d="M3680 7651 c-142 -44 -288 -214 -356 -416 -35 -105 -44 -240 -20
-312 21 -62 73 -119 124 -132 49 -14 59 -14 119 4 108 32 223 148 299 300 106
214 111 420 12 512 -48 45 -118 62 -178 44z m96 -147 c66 -100 -14 -362 -155
-505 -82 -83 -138 -106 -174 -70 -20 19 -22 31 -21 119 0 80 5 109 27 166 53
134 141 251 223 295 53 27 80 26 100 -5z"/>
</g>
</svg>
