<svg
  width="30"
  height="24"
  viewBox="0 0 30 24"
  fill="none"
  xmlns="http://www.w3.org/2000/svg"
>
  <path
    d="M2 6C2 5.44772 2.44772 5 3 5H27C27.5523 5 28 5.44772 28 6C28 6.55228 27.5523 7 27 7H3C2.44772 7 2 6.55228 2 6Z"
    fill="currentColor"
  />
  <path
    d="M2 12.0322C2 11.4799 2.44772 11.0322 3 11.0322H27C27.5523 11.0322 28 11.4799 28 12.0322C28 12.5845 27.5523 13.0322 27 13.0322H3C2.44772 13.0322 2 12.5845 2 12.0322Z"
    fill="currentColor"
  />
  <path
    d="M3 17.0645C2.44772 17.0645 2 17.5122 2 18.0645C2 18.6167 2.44772 19.0645 3 19.0645H27C27.5523 19.0645 28 18.6167 28 18.0645C28 17.5122 27.5523 17.0645 27 17.0645H3Z"
    fill="currentColor"
  />
</svg>