<!--?xml version="1.0" encoding="utf-8"?-->
<!-- Generator: Adobe Illustrator 19.1.1, SVG Export Plug-In . SVG Version: 6.00 Build 0)  -->
<svg version="1.1" id="_x31_0" xmlns="http://www.w3.org/2000/svg" xmlns:xlink="http://www.w3.org/1999/xlink" x="0px" y="0px" viewBox="0 0 512 512" style="width: 10px height: 10px; opacity: 1;" xml:space="preserve">
<style type="text/css">
	.st0{fill:#374149;}
</style>
<g>
	<path class="st0" d="M489.11,206.96c-4.866-23.175-16.915-36.158-26.167-42.972c-13.386-9.862-30.229-13.593-46.199-10.237
		l-0.125,0.026l-0.258,0.055c-7.146,1.554-13.699,4.385-19.474,8.248c-9.108-2.823-18.955-3.37-28.927-1.275l-0.122,0.026
		l-0.272,0.058c-8.609,1.871-16.353,5.521-22.947,10.564c-8.854-2.566-18.36-3.006-27.954-0.989l-0.122,0.026l-0.264,0.059
		c-2.374,0.514-4.686,1.169-6.926,1.945l-32.221-81.582l-0.102-0.254l-0.103-0.258c-14.57-35.286-44.512-54.617-74.514-48.1
		c-0.007,0-0.007,0-0.007,0c-2.15,0.467-4.286,1.074-6.355,1.802c-26.509,9.358-49.147,38.678-36.231,80.938l0.11,0.368l0.122,0.367
		l27.63,83.99l16.728,51.154l-12.214-4.951l-0.949-0.386l-0.97-0.327c-5.425-1.845-10.479-3.058-15.379-3.977
		c-0.21-0.041-0.408-0.066-0.618-0.106c-4.642-0.842-9.078-1.283-13.306-1.294c-0.077,0-0.162-0.01-0.239-0.01
		c-0.018,0-0.037,0-0.055,0c-1.992,0.003-3.936,0.11-5.84,0.298c-0.423,0.044-0.827,0.11-1.242,0.162
		c-1.71,0.206-3.466,0.302-5.11,0.658c-18.897,4.11-32.938,18.323-36.639,37.106c-6.973,35.349,24.778,78.611,50.379,96.247
		c21.918,15.103,47.637,22.991,76.674,23.55c32.382,50.426,93.494,73.27,162.542,58.766l1.279-0.272
		c81.842-17.786,123.102-84.614,105.11-170.254L489.11,206.96z M395.072,431.169c-0.338,0.074-0.69,0.15-1.033,0.22
		c-61.814,12.983-113.457-10.611-133.809-60.343c-0.482-1.173-41.293,8.609-77.557-16.378c-24.032-16.559-50.099-63.35-26.534-68.47
		c5.058-1.096,12.398-0.276,22.531,3.168l51.154,20.723l33.085,13.505l-0.037-0.122l0.184,0.074l-68.775-209.035
		c-6.043-19.768,1.845-32.218,13.762-36.426c0.662-0.235,1.33-0.426,2.014-0.573c11.229-2.437,25.262,6.539,33.562,26.641
		l52.426,132.736l9.443-1.981c-1.007-16.31,7.866-26.847,18.445-29.145c0.047-0.011,0.095-0.022,0.143-0.033
		c10.574-2.224,23.024,3.845,28.754,19.234l3.992-0.838c-0.798-15.658,7.958-25.756,18.397-28.023
		c0.048-0.011,0.099-0.022,0.147-0.034c9.975-2.098,22.219,2.97,27.869,18.305l3.591-0.754
		c-0.316-13.684,7.737-22.524,17.187-24.579c0.044-0.007,0.092-0.018,0.14-0.029c11.233-2.357,25.318,4.539,29.692,25.351
		l18.727,89.171C486.519,369.932,457.533,417.594,395.072,431.169z" style="fill: rgb(75, 75, 75);"></path>
	<path class="st0" d="M103.558,48.785c-0.364-2.978-3.819-4.447-6.219-2.639L65.342,70.24L49.361,82.178l0.081,0.033l-0.14,0.106
		l17.823,7.576L18.026,208.581l-0.147,0.357L6.017,204.03l-5.87-2.506l0.011,0.084L0,201.542l7.881,59.612
		c0.393,2.977,3.863,4.41,6.245,2.584l31.776-24.414l15.85-12.082l-0.081-0.033l0.136-0.107l-17.878-7.391l48.919-118.246
		l0.228-0.548l11.766,5.002l5.874,2.581l-0.011-0.089l0.162,0.066L103.558,48.785z" style="fill: rgb(75, 75, 75);"></path>
</g>
</svg>
